<svg width="35" height="35" viewBox="0 0 65 65" fill="none" xmlns="http://www.w3.org/2000/svg">
<g clip-path="url(#clip0_8_448)">
<path d="M0 0H65V65H0V0Z" fill="#58BE92"/>
<path d="M43.2714 21.1598C41.6812 17.0857 37.6535 16.7143 32.9526 17.6429L31.2928 11.7812L27.7294 12.8143L29.366 18.467L26.5339 19.3259L24.8973 13.6036L21.3687 14.6366L23.0285 20.4402L20.7651 21.1366V21.125L15.8785 22.5179L16.958 26.3018C16.958 26.3018 19.5696 25.4893 19.5464 25.5589C20.9741 25.1411 21.6821 25.8491 22.0303 26.5339L23.9339 33.1616L24.3169 33.1036L23.9339 33.208L26.6035 42.517C26.6732 42.9813 26.6035 43.7705 25.6169 44.0607C25.6634 44.0839 23.0285 44.8152 23.0285 44.8152L23.5393 49.2491L28.1473 47.9259L30.7009 47.2179L32.3955 53.1027L35.9125 52.0813L34.2643 46.2661L37.0964 45.4768L38.7562 51.2804L42.3196 50.2589L40.625 44.3741C46.4866 42.3196 50.2357 39.6152 49.1562 33.8696C48.2741 29.25 45.5696 27.8339 41.9598 28.008C43.7009 26.3482 44.4553 24.1545 43.2946 21.1598H43.2714V21.1598ZM41.9482 35.2045C43.1901 39.6152 35.5178 41.2634 33.1268 41.9714L30.8866 34.1598C33.2893 33.4634 40.625 30.6196 41.9482 35.2045V35.2045ZM37.1428 24.6304C38.2803 28.658 31.85 29.9813 29.8419 30.5616L27.8107 23.4812C29.8187 22.9125 35.9357 20.4634 37.1428 24.6536V24.6304Z" fill="white"/>
</g>
<defs>
<clipPath id="clip0_8_448">
<rect width="65" height="65" rx="32.5" fill="white"/>
</clipPath>
</defs>
</svg>
