<svg width="35" height="35" viewBox="0 0 65 65" fill="none" xmlns="http://www.w3.org/2000/svg">
<g clip-path="url(#clip0_5_268)">
<path d="M0 0H65V65H0V0Z" fill="#F7931A"/>
<path d="M46.3542 28.6743C46.952 24.6188 43.8819 22.4564 39.6534 20.9881L41.0231 15.5234L37.6837 14.6923L36.3512 20.0223L33.6862 19.3851L35.0373 14.0168L31.6967 13.1869L30.3259 18.6713L28.2018 18.1687V18.1501L23.5868 16.9905L22.6977 20.5632C22.6977 20.5632 25.17 21.1436 25.1306 21.1622C26.4828 21.5104 26.7149 22.3983 26.6766 23.0936L25.1306 29.3498L25.4788 29.4659L25.112 29.3881L22.9299 38.1364C22.7755 38.5427 22.3495 39.1602 21.4047 38.9083C21.443 38.9664 18.9904 38.3291 18.9904 38.3291L17.3306 42.1339L21.6751 43.2146L24.0499 43.8332L22.6594 49.3756L25.9999 50.2056L27.3522 44.7212L30.0357 45.4164L28.6661 50.8811L32.0055 51.7122L33.3763 46.1697C39.0731 47.2504 43.3607 46.8267 45.1575 41.6697C46.6049 37.5189 45.0798 35.143 42.0863 33.5597C44.2684 33.0769 45.9097 31.6283 46.3345 28.6731H46.3542V28.6743ZM38.726 39.3726C37.7023 43.5245 30.7124 41.2646 28.4537 40.7237L30.2876 33.3671C32.5464 33.9463 39.8078 35.0466 38.726 39.3529V39.3726V39.3726ZM39.7498 28.6163C38.8224 32.3816 32.9909 30.4699 31.1175 30.0068L32.7774 23.3443C34.6705 23.8086 40.734 24.6965 39.7498 28.6163V28.6163Z" fill="white"/>
</g>
<defs>
<clipPath id="clip0_5_268">
<rect width="65" height="65" rx="32.5" fill="white"/>
</clipPath>
</defs>
</svg>
