<svg width="35" height="35" viewBox="0 0 65 65" fill="none" xmlns="http://www.w3.org/2000/svg">
<g clip-path="url(#clip0_5_236)">
<path d="M0 0H65V65H0V0Z" fill="#F0F3FA"/>
<path d="M32.5 9.28577V26.4411L47.0089 32.9295L32.5 9.28577Z" fill="#8FFCF3"/>
<path d="M32.4999 9.28577L17.991 32.9295L32.4999 26.4411V9.28577Z" fill="#CABCF8"/>
<path d="M32.5 44.0491V55.7143L47.0089 35.6339L32.5 44.0491Z" fill="#CBA7F5"/>
<path d="M32.4999 55.7143V44.0491L17.991 35.6339L32.4999 55.7143Z" fill="#74A0F3"/>
<path d="M32.5 41.3446L47.0089 32.9294L32.5 26.441V41.3446V41.3446Z" fill="#CBA7F5"/>
<path d="M17.991 32.9294L32.4999 41.3446V26.441L17.991 32.9294Z" fill="#74A0F3"/>
<path fill-rule="evenodd" clip-rule="evenodd" d="M32.4999 41.3447L17.991 32.9295L32.4999 9.28577L47.0088 32.9295L32.4999 41.3447ZM18.9544 32.2447L32.2678 10.5509V26.3251L18.9544 32.2447V32.2447ZM18.757 32.8367L32.2678 26.8358V40.6715L18.757 32.8367ZM32.732 26.8358V40.6715L46.2311 32.8367L32.732 26.8358ZM32.732 26.3251L46.0454 32.2447L32.732 10.5509V26.3251V26.3251Z" fill="#202699"/>
<path fill-rule="evenodd" clip-rule="evenodd" d="M32.4999 43.8634L17.991 35.6223L32.4999 55.7143L47.0088 35.6223L32.4999 43.8634ZM19.616 37.0732L32.2678 44.2696V54.6L19.616 37.0732ZM32.732 44.2696V54.6L45.3838 37.0732L32.732 44.2696V44.2696Z" fill="#202699"/>
</g>
<defs>
<clipPath id="clip0_5_236">
<rect width="65" height="65" rx="32.5" fill="white"/>
</clipPath>
</defs>
</svg>
