<svg width="35" height="35" viewBox="0 0 65 65" fill="none" xmlns="http://www.w3.org/2000/svg">
<g clip-path="url(#clip0_7_438)">
<path d="M0 0H65V65H0V0Z" fill="url(#paint0_linear_7_438)"/>
<path d="M45.6242 16.25H50.9995L39.8172 28.1798C38.875 29.1753 37.7409 29.9696 36.4833 30.5146C35.2257 31.0596 33.8706 31.3441 32.5 31.3509C31.1294 31.3441 29.7744 31.0596 28.5167 30.5146C27.2591 29.9696 26.125 29.1753 25.1829 28.1798L13.982 16.25H19.3758L27.8618 25.3883C30.3469 28.0243 34.6531 28.0243 37.1382 25.3883L45.6231 16.25H45.6242ZM19.3027 48.7314H13.9286L25.1817 36.8376C26.1255 35.8418 27.2613 35.0474 28.5205 34.5024C29.7796 33.9574 31.1361 33.673 32.5081 33.6665C33.8803 33.6732 35.2368 33.9577 36.496 34.5029C37.7551 35.0481 38.8908 35.8427 39.8346 36.8388L51.0714 48.75H45.6962L37.1568 39.6477C34.6706 37.0129 30.3655 37.0129 27.8804 39.6477L19.3039 48.7314H19.3027Z" fill="white"/>
</g>
<defs>
<linearGradient id="paint0_linear_7_438" x1="12.0923" y1="11.2729" x2="79.0992" y2="88.234" gradientUnits="userSpaceOnUse">
<stop stop-color="#1A1E21"/>
<stop offset="1" stop-color="#06060A"/>
</linearGradient>
<clipPath id="clip0_7_438">
<rect width="65" height="65" rx="32.5" fill="white"/>
</clipPath>
</defs>
</svg>
